<?xml version="1.0" encoding="UTF-8" standalone="no"?>
<!-- Created with Inkscape (http://www.inkscape.org/) -->

<svg
   width="569.55493"
   height="84.392853"
   viewBox="0 0 150.69475 22.328942"
   version="1.1"
   id="svg5"
   inkscape:version="1.2.1 (9c6d41e4, 2022-07-14)"
   sodipodi:docname="logo.svg"
   xmlns:inkscape="http://www.inkscape.org/namespaces/inkscape"
   xmlns:sodipodi="http://sodipodi.sourceforge.net/DTD/sodipodi-0.dtd"
   xmlns="http://www.w3.org/2000/svg"
   xmlns:svg="http://www.w3.org/2000/svg">
  <sodipodi:namedview
     id="namedview7"
     pagecolor="#ffffff"
     bordercolor="#999999"
     borderopacity="1"
     inkscape:showpageshadow="0"
     inkscape:pageopacity="0"
     inkscape:pagecheckerboard="0"
     inkscape:deskcolor="#d1d1d1"
     inkscape:document-units="px"
     showgrid="false"
     inkscape:zoom="1"
     inkscape:cx="348"
     inkscape:cy="34"
     inkscape:window-width="1536"
     inkscape:window-height="932"
     inkscape:window-x="0"
     inkscape:window-y="28"
     inkscape:window-maximized="0"
     inkscape:current-layer="layer1" />
  <defs
     id="defs2" />
  <g
     inkscape:label="Layer 1"
     inkscape:groupmode="layer"
     id="layer1"
     transform="translate(-31.185123,-80.067667)">
    <path
       d="m 56.987739,82.975738 q 1.964887,1.439656 3.001312,3.527155 1.058014,2.087486 1.058014,4.736438 0,2.648961 -1.079609,4.750844 -1.058016,2.087476 -2.979717,3.483949 -1.986476,1.454046 -4.707087,2.188256 -2.699018,0.73423 -6.175355,0.73423 -3.389966,0 -6.175354,-0.74862 -2.763796,-0.74862 -4.707088,-2.173866 -1.943294,-1.425254 -3.001308,-3.498346 -1.036424,-2.073093 -1.036424,-4.736447 0,-2.620162 1.036424,-4.693253 1.036421,-2.087499 3.022902,-3.57034 1.900109,-1.410844 4.707086,-2.159473 2.828571,-0.748598 6.153762,-0.748598 3.454745,0 6.196949,0.763009 2.763795,0.748613 4.685493,2.145062 z m -0.388658,8.263593 q 0,-4.174977 -2.806977,-6.435224 -2.806982,-2.274646 -7.665214,-2.274646 -4.901419,0 -7.708399,2.274646 -2.785384,2.260247 -2.785384,6.435224 0,4.218168 2.850163,6.464034 2.850163,2.231443 7.64362,2.231443 4.793458,0 7.62203,-2.231443 2.850161,-2.245866 2.850161,-6.464034 z"
       id="path1161"
       style="font-size:22.7213px;opacity:1;fill:#b200ff;fill-opacity:1;stroke-width:0.264584" />
    <path
       id="path1163"
       style="font-size:22.7213px;opacity:1;fill:#b200ff;fill-opacity:1;stroke-width:0.264584"
       d="m 61.341927,80.402063 c -0.08218,5.3e-5 -0.156373,0.05237 -0.156444,0.111338 v 21.436859 c 6.4e-5,0.0587 0.07426,0.11133 0.156444,0.11133 h 4.276368 c 0.08218,-3e-5 0.156386,-0.0523 0.156439,-0.11133 v -7.401108 a 1.4126978,1.0112547 0 0 1 1.412656,-1.011225 h 3.756461 a 1.4126978,1.0112547 0 0 1 1.047311,0.334619 l 10.285771,8.150814 c 0.005,0.004 0.01027,0.007 0.01597,0.0104 a 1.0741885,0.76893882 0 0 1 0.05806,-0.36278 l 1.620612,-2.968641 -6.59488,-5.111091 a 1.4126978,1.0112547 0 0 1 0.3541,-1.571822 c 1.250091,-0.495877 2.305471,-1.047667 3.059502,-1.718006 a 1.4126978,1.0112547 0 0 1 0.0029,-0.0036 C 81.974116,89.238275 82.574,87.901537 82.574,86.344139 c 0,-1.152776 -0.336224,-2.116025 -1.015463,-2.876763 a 1.4126978,1.0112547 0 0 1 -0.01126,-0.01038 C 80.888058,82.698078 79.957683,82.06181 78.782818,81.568575 77.73382,81.131457 76.550282,80.826678 75.245563,80.661294 a 1.4126978,1.0112547 0 0 1 -0.0075,-0.0031 c -3.53e-4,-8e-6 -0.0066,0 -0.0066,0 a 1.4126978,1.0112547 0 0 1 -0.004,0 c -1.311136,-0.174344 -2.929685,-0.25869 -4.878674,-0.25869 z m 5.845459,2.671556 h 3.462317 c 1.148315,0 2.134747,0.05903 2.970506,0.17235 a 1.4126978,1.0112547 0 0 1 0.004,0 c 0.828035,0.102895 1.545035,0.28737 2.145209,0.557245 a 1.4126978,1.0112547 0 0 1 0.004,0.0031 c 0.704583,0.307164 1.24706,0.722474 1.536309,1.160756 0.313753,0.445711 0.481499,0.983068 0.481499,1.579203 0,0.801192 -0.146416,1.433405 -0.459955,1.95606 a 1.4126978,1.0112547 0 0 1 -0.004,0.0031 c -0.286632,0.491437 -0.757648,0.946011 -1.373309,1.331102 -0.002,4.47e-4 -0.0016,0.004 -0.004,0.0057 a 1.4126978,1.0112547 0 0 1 -0.01776,0.0104 c -0.671551,0.40872 -1.511062,0.699349 -2.471208,0.856991 a 1.4126978,1.0112547 0 0 1 -0.02155,0.0036 c -0.990822,0.150559 -2.155619,0.230677 -3.501658,0.230677 H 67.187432 A 1.4126978,1.0112547 0 0 1 65.774777,89.93263 V 84.088314 A 1.4126978,1.0112547 0 0 1 67.187433,83.0771 Z m 8.58553,0.732259 0.137696,0.07112 v -0.0031 a 1.4126978,1.0112547 0 0 0 -0.137696,-0.06842 z" />
    <path
       d="m 139.96339,80.513942 -7.78317,21.436368 h -4.48488 l -6.29488,-17.794052 -6.15413,17.794052 h -4.38432 l -7.92396,-21.436368 h 4.08265 l 6.29491,17.822855 6.19434,-17.822855 h 4.04242 l 6.2547,17.995617 6.25469,-17.995617 z"
       id="path1167"
       style="font-size:22.7213px;opacity:1;fill:#b200ff;fill-opacity:1;stroke-width:0.264584" />
    <path
       id="path1169"
       style="font-size:22.7213px;opacity:1;fill:#b200ff;fill-opacity:1;stroke-width:0.264584"
       d="m 144.15998,80.514044 -10.90027,21.436186 h 4.04215 l 2.93681,-5.974789 h 12.95183 l 2.93582,5.974789 -0.0983,0.23832 2.10864,-4.629895 -8.66703,-17.044611 z m 2.5546,2.490515 5.24873,10.523975 h -10.51809 z"
       sodipodi:nodetypes="cccccccccccccc" />
    <path
       d="m 181.87987,101.95031 h -4.92733 L 162.75382,82.774196 v 19.176114 h -3.72065 V 80.513942 h 6.17424 l 12.95184,17.506129 V 80.513942 h 3.72062 z"
       id="path1171"
       style="font-size:22.7213px;opacity:1;fill:#b200ff;fill-opacity:1;stroke-width:0.264584" />
    <path
       id="path2922"
       style="font-size:22.7213px;opacity:1;fill:#b200ff;fill-opacity:1;stroke-width:0.264584"
       d="M 94.09295,80.626398 83.192665,102.06258 h 4.042169 l 2.936785,-5.974799 h 12.951821 l 2.93586,5.974799 -0.0983,0.23833 2.10863,-4.629919 -8.667036,-17.044593 z m 2.554583,2.490499 5.248737,10.523976 H 91.378192 Z"
       sodipodi:nodetypes="cccccccccccccc" />
    <rect
       style="opacity:1;fill:none;fill-opacity:1;stroke-width:0.264584"
       id="rect10663"
       width="185.08406"
       height="45.244709"
       x="34.353378"
       y="50.521584"
       rx="27.65147"
       ry="18.488144" />
  </g>
</svg>
