<?xml version="1.0" encoding="UTF-8" standalone="no"?>
<!-- Created with Inkscape (http://www.inkscape.org/) -->

<svg
   width="100"
   height="20.699451"
   viewBox="0 0 26.458333 5.4767299"
   version="1.1"
   id="svg5"
   inkscape:version="1.2.1 (9c6d41e4, 2022-07-14)"
   sodipodi:docname="logoW100.svg"
   xmlns:inkscape="http://www.inkscape.org/namespaces/inkscape"
   xmlns:sodipodi="http://sodipodi.sourceforge.net/DTD/sodipodi-0.dtd"
   xmlns="http://www.w3.org/2000/svg"
   xmlns:svg="http://www.w3.org/2000/svg">
  <sodipodi:namedview
     id="namedview7"
     pagecolor="#ffffff"
     bordercolor="#999999"
     borderopacity="1"
     inkscape:showpageshadow="0"
     inkscape:pageopacity="0"
     inkscape:pagecheckerboard="0"
     inkscape:deskcolor="#d1d1d1"
     inkscape:document-units="px"
     showgrid="false"
     inkscape:zoom="2.1608678"
     inkscape:cx="133.97395"
     inkscape:cy="29.154953"
     inkscape:window-width="1536"
     inkscape:window-height="932"
     inkscape:window-x="0"
     inkscape:window-y="28"
     inkscape:window-maximized="0"
     inkscape:current-layer="layer1" />
  <defs
     id="defs2" />
  <g
     inkscape:label="Layer 1"
     inkscape:groupmode="layer"
     id="layer1"
     transform="translate(-29.826007,-163.79759)">
    <path
       d="m 34.356319,164.51087 q 0.344986,0.35311 0.526957,0.86512 0.185762,0.51201 0.185762,1.16173 0,0.64973 -0.189553,1.16526 -0.185762,0.51201 -0.523166,0.85453 -0.348777,0.35664 -0.82645,0.53673 -0.473882,0.18008 -1.084243,0.18008 -0.595195,0 -1.084242,-0.18362 -0.485255,-0.18361 -0.82645,-0.53319 -0.341195,-0.34958 -0.526956,-0.85806 -0.181971,-0.50847 -0.181971,-1.16173 0,-0.64266 0.181971,-1.15113 0.18197,-0.51202 0.530748,-0.87572 0.333612,-0.34605 0.82645,-0.52966 0.496628,-0.18362 1.08045,-0.18362 0.60657,0 1.088034,0.18715 0.485255,0.18361 0.822659,0.52613 z m -0.06824,2.02685 q 0,-1.02401 -0.492837,-1.5784 -0.492838,-0.55791 -1.345825,-0.55791 -0.86057,0 -1.353407,0.55791 -0.489046,0.55439 -0.489046,1.5784 0,1.03461 0.500419,1.58547 0.500419,0.54732 1.342034,0.54732 0.841615,0 1.338243,-0.54732 0.500419,-0.55086 0.500419,-1.58547 z"
       id="path1161"
       style="font-size:22.7213px;opacity:1;fill:#b200ff;fill-opacity:1;stroke-width:0.264583" />
    <path
       id="path1163"
       style="font-size:22.7213px;opacity:1;fill:#b200ff;fill-opacity:1;stroke-width:0.264583"
       d="m 35.120808,163.87961 c -0.01443,10e-6 -0.02746,0.0128 -0.02747,0.0273 v 5.25792 c 1.1e-5,0.0144 0.01304,0.0273 0.02747,0.0273 h 0.750826 c 0.01443,-1e-5 0.02746,-0.0128 0.02747,-0.0273 v -1.81531 a 0.24803536,0.24803536 0 0 1 0.248028,-0.24802 h 0.659543 a 0.24803536,0.24803536 0 0 1 0.183883,0.0821 l 1.805931,1.99919 c 8.74e-4,7.9e-4 0.0018,0.002 0.0028,0.002 a 0.1886014,0.1886014 0 0 1 0.0102,-0.089 l 0.284541,-0.72813 -1.157901,-1.25362 a 0.24803536,0.24803536 0 0 1 0.06217,-0.38553 c 0.219486,-0.12163 0.404785,-0.25697 0.537175,-0.42139 a 0.24803536,0.24803536 0 0 1 5.16e-4,-7.9e-4 c 0.207341,-0.25988 0.312666,-0.58775 0.312667,-0.96974 0,-0.28275 -0.05903,-0.51901 -0.17829,-0.7056 a 0.24803536,0.24803536 0 0 1 -0.002,-0.002 c -0.115735,-0.18613 -0.279086,-0.34219 -0.485364,-0.46317 -0.184178,-0.10721 -0.391979,-0.18196 -0.621056,-0.22253 a 0.24803536,0.24803536 0 0 1 -0.0013,-7.9e-4 c -6.1e-5,-1e-5 -0.0012,0 -0.0012,0 a 0.24803536,0.24803536 0 0 1 -6.76e-4,0 c -0.230211,-0.0428 -0.514389,-0.0635 -0.856584,-0.0635 z m 1.026321,0.65527 h 0.607898 c 0.201617,0 0.37481,0.0145 0.521549,0.0423 a 0.24803536,0.24803536 0 0 1 6.76e-4,0 c 0.145383,0.0252 0.27127,0.0705 0.376646,0.13668 a 0.24803536,0.24803536 0 0 1 6.76e-4,7.9e-4 c 0.123707,0.0754 0.218953,0.17721 0.269739,0.28471 0.05509,0.10932 0.08454,0.24112 0.08454,0.38734 0,0.19651 -0.02571,0.35158 -0.08076,0.47977 a 0.24803536,0.24803536 0 0 1 -6.75e-4,7.9e-4 c -0.05033,0.12055 -0.133025,0.23204 -0.24112,0.32649 -3.5e-4,3.2e-4 -2.93e-4,7.9e-4 -6.76e-4,0.001 a 0.24803536,0.24803536 0 0 1 -0.0031,0.002 c -0.117908,0.10025 -0.265305,0.17154 -0.433883,0.2102 a 0.24803536,0.24803536 0 0 1 -0.0038,7.9e-4 c -0.173964,0.0369 -0.378474,0.0566 -0.614807,0.0566 h -0.482896 a 0.24803536,0.24803536 0 0 1 -0.248028,-0.24803 v -1.43339 a 0.24803536,0.24803536 0 0 1 0.248028,-0.24803 z m 1.50741,0.1796 0.02418,0.0174 v -8e-4 a 0.24803536,0.24803536 0 0 0 -0.02418,-0.0168 z" />
    <path
       d="m 48.924825,163.90706 -1.366534,5.2578 h -0.787434 l -1.105234,-4.36444 -1.080515,4.36444 h -0.769779 l -1.391251,-5.2578 h 0.716812 l 1.105233,4.37149 1.087578,-4.37149 h 0.70975 l 1.098171,4.41386 1.098171,-4.41386 z"
       id="path1167"
       style="font-size:22.7213px;opacity:1;fill:#b200ff;fill-opacity:1;stroke-width:0.264583" />
    <path
       id="path1169"
       style="font-size:22.7213px;opacity:1;fill:#b200ff;fill-opacity:1;stroke-width:0.264583"
       d="m 49.661647,163.90708 -1.913826,5.25776 h 0.709707 l 0.515628,-1.46547 h 2.274026 l 0.515462,1.46547 -0.01725,0.0584 0.370223,-1.1356 -1.521718,-4.18061 z m 0.448522,0.61086 0.921551,2.58126 H 49.185 Z"
       sodipodi:nodetypes="cccccccccccccc" />
    <path
       d="m 56.28434,169.16486 h -0.865121 l -2.492952,-4.70342 v 4.70342 h -0.653252 v -5.2578 h 1.084045 l 2.274028,4.29381 v -4.29381 h 0.653252 z"
       id="path1171"
       style="font-size:22.7213px;opacity:1;fill:#b200ff;fill-opacity:1;stroke-width:0.264583" />
    <path
       id="path2922"
       style="font-size:22.7213px;opacity:1;fill:#b200ff;fill-opacity:1;stroke-width:0.264583"
       d="m 40.871092,163.93464 -1.913826,5.25775 h 0.709708 l 0.515628,-1.46547 h 2.274026 l 0.515462,1.46547 -0.01725,0.0585 0.370224,-1.1356 -1.521719,-4.18061 z m 0.448523,0.61085 0.921551,2.58127 h -1.846721 z"
       sodipodi:nodetypes="cccccccccccccc" />
  </g>
</svg>
