<?xml version="1.0" encoding="UTF-8" standalone="no"?>
<!-- Created with Inkscape (http://www.inkscape.org/) -->

<svg
   width="65"
   height="13.454627"
   viewBox="0 0 17.197917 3.5598701"
   version="1.1"
   id="svg5"
   inkscape:version="1.2.1 (9c6d41e4, 2022-07-14)"
   sodipodi:docname="logoW65.svg"
   xmlns:inkscape="http://www.inkscape.org/namespaces/inkscape"
   xmlns:sodipodi="http://sodipodi.sourceforge.net/DTD/sodipodi-0.dtd"
   xmlns="http://www.w3.org/2000/svg"
   xmlns:svg="http://www.w3.org/2000/svg">
  <sodipodi:namedview
     id="namedview7"
     pagecolor="#ffffff"
     bordercolor="#999999"
     borderopacity="1"
     inkscape:showpageshadow="0"
     inkscape:pageopacity="0"
     inkscape:pagecheckerboard="0"
     inkscape:deskcolor="#d1d1d1"
     inkscape:document-units="px"
     showgrid="false"
     inkscape:zoom="2.1608678"
     inkscape:cx="133.97395"
     inkscape:cy="16.197196"
     inkscape:window-width="1536"
     inkscape:window-height="932"
     inkscape:window-x="0"
     inkscape:window-y="28"
     inkscape:window-maximized="0"
     inkscape:current-layer="layer1" />
  <defs
     id="defs2" />
  <g
     inkscape:label="Layer 1"
     inkscape:groupmode="layer"
     id="layer1"
     transform="translate(-29.826007,-163.79759)">
    <path
       d="m 32.77071,164.26122 q 0.224241,0.22952 0.342522,0.56233 0.120745,0.33281 0.120745,0.75512 0,0.42233 -0.123209,0.75742 -0.120746,0.33281 -0.340058,0.55545 -0.226705,0.23181 -0.537193,0.34887 -0.308023,0.11705 -0.704758,0.11705 -0.386877,0 -0.704757,-0.11935 -0.315416,-0.11934 -0.537193,-0.34657 -0.221776,-0.22723 -0.342521,-0.55774 -0.118281,-0.33051 -0.118281,-0.75513 0,-0.41772 0.118281,-0.74823 0.118281,-0.33281 0.344986,-0.56922 0.216848,-0.22493 0.537193,-0.34428 0.322808,-0.11935 0.702292,-0.11935 0.394271,0 0.707222,0.12165 0.315416,0.11934 0.534729,0.34198 z m -0.04436,1.31745 q 0,-0.6656 -0.320344,-1.02596 -0.320345,-0.36264 -0.874787,-0.36264 -0.55937,0 -0.879714,0.36264 -0.31788,0.36036 -0.31788,1.02596 0,0.6725 0.325272,1.03056 0.325273,0.35576 0.872322,0.35576 0.54705,0 0.869858,-0.35576 0.325273,-0.35806 0.325273,-1.03056 z"
       id="path1161"
       style="font-size:22.7213px;opacity:1;fill:#b200ff;fill-opacity:1;stroke-width:0.264583" />
    <path
       id="path1163"
       style="font-size:22.7213px;opacity:1;fill:#b200ff;fill-opacity:1;stroke-width:0.264583"
       d="m 33.267628,163.8509 c -0.0094,1e-5 -0.01785,0.008 -0.01786,0.0178 v 3.41765 c 7e-6,0.009 0.0085,0.0177 0.01786,0.0177 h 0.488036 c 0.0094,-1e-5 0.01785,-0.008 0.01786,-0.0177 v -1.17996 a 0.16122299,0.16122299 0 0 1 0.161218,-0.16121 h 0.428703 a 0.16122299,0.16122299 0 0 1 0.119524,0.0534 l 1.173855,1.29947 c 5.68e-4,5.1e-4 0.0012,0.001 0.0018,0.001 a 0.12259091,0.12259091 0 0 1 0.0066,-0.0579 l 0.184952,-0.47328 -0.752636,-0.81486 a 0.16122299,0.16122299 0 0 1 0.04041,-0.25059 c 0.142666,-0.0791 0.26311,-0.16703 0.349163,-0.27391 a 0.16122299,0.16122299 0 0 1 3.36e-4,-5.1e-4 c 0.134772,-0.16892 0.203233,-0.38204 0.203233,-0.63033 0,-0.18379 -0.03837,-0.33736 -0.115888,-0.45864 a 0.16122299,0.16122299 0 0 1 -0.0013,-0.001 c -0.07523,-0.12098 -0.181406,-0.22242 -0.315487,-0.30106 -0.119715,-0.0697 -0.254786,-0.11827 -0.403686,-0.14464 a 0.16122299,0.16122299 0 0 1 -8.45e-4,-5.2e-4 c -4e-5,0 -7.8e-4,0 -7.8e-4,0 a 0.16122299,0.16122299 0 0 1 -4.39e-4,0 c -0.149638,-0.0278 -0.334353,-0.0413 -0.55678,-0.0413 z m 0.667108,0.42593 h 0.395134 c 0.131051,0 0.243626,0.009 0.339007,0.0275 a 0.16122299,0.16122299 0 0 1 4.39e-4,0 c 0.0945,0.0164 0.176326,0.0458 0.24482,0.0889 a 0.16122299,0.16122299 0 0 1 4.39e-4,5.1e-4 c 0.08041,0.049 0.14232,0.11519 0.175331,0.18506 0.03581,0.0711 0.05495,0.15673 0.05495,0.25177 0,0.12773 -0.01671,0.22853 -0.05249,0.31185 a 0.16122299,0.16122299 0 0 1 -4.39e-4,5.2e-4 c -0.03271,0.0784 -0.08647,0.15082 -0.156728,0.21221 -2.27e-4,2.1e-4 -1.9e-4,5.2e-4 -4.39e-4,6.5e-4 a 0.16122299,0.16122299 0 0 1 -0.002,0.001 c -0.07664,0.0652 -0.172449,0.11151 -0.282024,0.13663 a 0.16122299,0.16122299 0 0 1 -0.0025,5.2e-4 c -0.113077,0.024 -0.246008,0.0368 -0.399625,0.0368 h -0.313882 a 0.16122299,0.16122299 0 0 1 -0.161218,-0.16122 v -0.93171 a 0.16122299,0.16122299 0 0 1 0.161218,-0.16121 z m 0.979817,0.11674 0.01572,0.0113 v -5.2e-4 a 0.16122299,0.16122299 0 0 0 -0.01572,-0.0109 z" />
    <path
       d="m 42.240239,163.86875 -0.888247,3.41757 H 40.84016 l -0.718403,-2.83689 -0.702334,2.83689 h -0.500357 l -0.904313,-3.41757 h 0.465928 l 0.718401,2.84146 0.706926,-2.84146 h 0.461338 l 0.713811,2.869 0.713811,-2.869 z"
       id="path1167"
       style="font-size:22.7213px;opacity:1;fill:#b200ff;fill-opacity:1;stroke-width:0.264583" />
    <path
       id="path1169"
       style="font-size:22.7213px;opacity:1;fill:#b200ff;fill-opacity:1;stroke-width:0.264583"
       d="m 42.719173,163.86876 -1.243987,3.41754 h 0.46131 l 0.335158,-0.95255 h 1.478117 l 0.33505,0.95255 -0.01121,0.038 0.240645,-0.73814 -0.989117,-2.71739 z m 0.291539,0.39706 0.599009,1.67782 h -1.200369 z"
       sodipodi:nodetypes="cccccccccccccc" />
    <path
       d="m 47.023924,167.28632 h -0.562329 l -1.620419,-3.05723 v 3.05723 h -0.424614 v -3.41757 h 0.70463 l 1.478118,2.79097 v -2.79097 h 0.424614 z"
       id="path1171"
       style="font-size:22.7213px;opacity:1;fill:#b200ff;fill-opacity:1;stroke-width:0.264583" />
    <path
       id="path2922"
       style="font-size:22.7213px;opacity:1;fill:#b200ff;fill-opacity:1;stroke-width:0.264583"
       d="m 37.005312,163.88667 -1.243987,3.41754 h 0.46131 l 0.335159,-0.95256 h 1.478117 l 0.33505,0.95256 -0.01121,0.038 0.240646,-0.73814 -0.989117,-2.7174 z m 0.29154,0.39706 0.599008,1.67782 h -1.200368 z"
       sodipodi:nodetypes="cccccccccccccc" />
  </g>
</svg>
